<svg width="386" height="410" fill="none" xmlns="http://www.w3.org/2000/svg"><path d="M274.773 291.75l37.62 116.85h71.25L247.983 1.62h-110.58L2.313 408.6h69.54l37.05-116.85h165.87zm-146.49-60.99l51.3-162.45h23.37l51.87 162.45h-126.54z" fill="#1B1B1B"/><path d="M274.773 291.75l.952-.306-.224-.694h-.728v1zm37.62 116.85l-.952.307.223.693h.729v-1zm71.25 0v1h1.387l-.439-1.316-.948.316zM247.983 1.62l.948-.316-.227-.684h-.721v1zm-110.58 0v-1h-.722l-.227.685.949.315zM2.313 408.6l-.95-.315-.436 1.315h1.386v-1zm69.54 0v1h.732l.221-.698-.953-.302zm37.05-116.85v-1h-.732l-.221.698.953.302zm19.38-60.99l-.954-.301-.411 1.301h1.365v-1zm51.3-162.45v-1h-.733l-.221.699.954.301zm23.37 0l.952-.304-.222-.696h-.73v1zm51.87 162.45v1h1.369l-.417-1.304-.952.304zm18.998 61.297l37.62 116.85 1.904-.613-37.62-116.85-1.904.613zM312.393 409.6h71.25v-2h-71.25v2zm72.198-1.316L248.931 1.304l-1.897.632 135.66 406.98 1.897-.632zM247.983.62h-110.58v2h110.58v-2zm-111.529.685L1.364 408.285l1.898.63 135.09-406.98-1.898-.63zM2.313 409.6h69.54v-2H2.313v2zm70.493-.698l37.05-116.85-1.906-.604-37.05 116.85 1.906.604zm36.097-116.152h165.87v-2h-165.87v2zm20.333-61.689l51.3-162.45-1.907-.602-51.3 162.45 1.907.602zm50.347-161.75h23.37v-2h-23.37v2zM202 68.613l51.87 162.45 1.905-.608-51.87-162.45-1.905.608zm52.823 161.146h-126.54v2h126.54v-2z" fill="#fff"/></svg>