<svg width="303" height="410" fill="none" xmlns="http://www.w3.org/2000/svg"><path d="M301.544 346.47H70.124V229.62h177.27v-60.99H70.124V63.75h224.01V1.62H1.724V408.6h299.82v-62.13z" fill="#1B1B1B"/><path d="M301.544 346.47h1v-1h-1v1zm-231.42 0h-1v1h1v-1zm0-116.85v-1h-1v1h1zm177.27 0v1h1v-1h-1zm0-60.99h1v-1h-1v1zm-177.27 0h-1v1h1v-1zm0-104.88v-1h-1v1h1zm224.01 0v1h1v-1h-1zm0-62.13h1v-1h-1v1zm-292.41 0v-1h-1v1h1zm0 406.98h-1v1h1v-1zm299.82 0v1h1v-1h-1zm0-63.13H70.124v2h231.42v-2zm-230.42 1V229.62h-2v116.85h2zm-1-115.85h177.27v-2H70.124v2zm178.27-1v-60.99h-2v60.99h2zm-1-61.99H70.124v2h177.27v-2zm-176.27 1V63.75h-2v104.88h2zm-1-103.88h224.01v-2H70.124v2zm225.01-1V1.62h-2v62.13h2zm-1-63.13H1.724v2h292.41v-2zm-293.41 1V408.6h2V1.62h-2zm1 407.98h299.82v-2H1.724v2zm300.82-1v-62.13h-2v62.13h2z" fill="#fff"/></svg>