<svg width="370" height="425" fill="none" xmlns="http://www.w3.org/2000/svg"><path d="M368.705 194.44h-180.12v58.14h111.15c-.57 16.53-2.85 31.35-7.41 45.03-4.56 13.68-10.83 25.08-19.38 34.2-9.12 9.69-19.95 17.1-33.06 22.23-13.11 5.13-28.5 7.41-45.6 7.41-21.66 0-39.9-3.42-55.29-11.4-15.96-7.98-28.5-18.81-38.76-32.49-10.26-13.68-17.67-29.07-22.23-47.31-5.13-18.24-7.41-37.62-7.41-58.14 0-20.52 2.28-39.9 7.41-58.14 4.56-18.24 12.54-33.63 22.8-47.31 10.26-13.11 22.8-23.37 38.19-31.35 15.39-7.98 33.63-11.97 55.29-11.97 25.65 0 46.17 5.13 60.99 14.82 14.82 10.26 24.51 23.94 30.21 41.61h71.25c-7.98-35.91-25.65-64.41-53.58-86.07-27.93-21.66-64.41-32.49-108.87-32.49-31.35 0-59.28 5.7-83.22 15.96-23.94 10.83-44.46 25.65-60.42 44.46-16.53 18.81-29.07 41.04-37.05 66.69-8.55 25.65-12.54 53.58-12.54 83.79 0 30.78 3.99 58.71 12.54 84.36 7.98 25.65 20.52 47.88 36.48 66.69 15.96 18.81 36.48 33.63 60.42 43.89 23.94 10.83 51.3 15.96 83.22 15.96 31.35 0 58.14-5.13 80.37-15.39 22.23-10.26 40.47-24.51 54.15-41.61 13.68-17.1 23.94-36.48 30.78-58.71 6.27-21.66 9.69-44.46 9.69-68.4v-44.46z" fill="#1B1B1B"/><path d="M368.705 194.44h1v-1h-1v1zm-180.12 0v-1h-1v1h1zm0 58.14h-1v1h1v-1zm111.15 0l.999.035.036-1.035h-1.035v1zm-7.41 45.03l-.949-.316.949.316zm-19.38 34.2l.728.685.002-.001-.73-.684zm-33.06 22.23l.364.931-.364-.931zm-100.89-3.99l.46-.888-.006-.003-.007-.003-.447.894zm-60.99-79.8l.97-.242-.003-.015-.004-.014-.963.271zm0-116.28l.963.271.004-.014.003-.014-.97-.243zm22.8-47.31l-.787-.616-.007.008-.006.008.8.6zm38.19-31.35l-.46-.888.46.888zm116.28 2.85l.569-.822-.011-.008-.011-.007-.547.837zm30.21 41.61l-.952.307.224.693h.728v-1zm71.25 0v1h1.247l-.271-1.217-.976.217zm-53.58-86.07l-.613.79.613-.79zm-192.09-16.53l-.394-.92-.009.005-.009.004.412.911zm-60.42 44.46l.751.66.006-.006.006-.007-.763-.647zm-37.05 66.69l.949.316.003-.009.003-.01-.955-.297zm0 168.15l.955-.297-.003-.01-.003-.009-.949.316zm36.48 66.69l.763-.647-.763.647zm60.42 43.89l.412-.911-.009-.004-.009-.004-.394.919zm163.59.57l-.419-.908.419.908zm84.93-100.32l.956.294.002-.008.003-.008-.961-.278zm9.69-113.86h-180.12v2h180.12v-2zm-181.12 1v58.14h2v-58.14h-2zm1 59.14h111.15v-2h-111.15v2zm110.151-1.034c-.568 16.459-2.837 31.18-7.36 44.748l1.898.632c4.597-13.792 6.888-28.711 7.46-45.311l-1.998-.069zm-7.36 44.748c-4.525 13.577-10.731 24.841-19.16 33.832l1.459 1.368c8.67-9.249 15.005-20.785 19.599-34.568l-1.898-.632zm-19.159 33.831c-9.018 9.581-19.724 16.908-32.696 21.984l.728 1.862c13.248-5.183 24.202-12.677 33.424-22.476l-1.456-1.37zm-32.696 21.984c-12.96 5.071-28.218 7.341-45.236 7.341v2c17.182 0 32.705-2.29 45.964-7.479l-.728-1.862zm-45.236 7.341c-21.56 0-39.627-3.405-54.83-11.288l-.92 1.776c15.577 8.077 33.99 11.512 55.75 11.512v-2zm-54.843-11.294c-15.814-7.907-28.235-18.634-38.407-32.196l-1.6 1.2c10.348 13.798 23.007 24.732 39.113 32.785l.894-1.789zm-38.407-32.196c-10.178-13.57-17.531-28.838-22.06-46.952l-1.94.485c4.591 18.365 12.058 33.878 22.4 47.667l1.6-1.2zm-22.067-46.981c-5.101-18.136-7.373-37.423-7.373-57.869h-2c0 20.594 2.288 40.067 7.447 58.411l1.926-.542zm-7.373-57.869c0-20.446 2.272-39.733 7.373-57.869l-1.926-.542c-5.159 18.344-7.447 37.817-7.447 58.411h2zm7.38-57.897c4.524-18.096 12.44-33.366 22.63-46.953l-1.6-1.2c-10.33 13.773-18.374 29.283-22.97 47.668l1.94.485zm22.618-46.937c10.167-12.99 22.593-23.16 37.862-31.078l-.92-1.776c-15.511 8.043-28.164 18.393-38.517 31.622l1.575 1.232zm37.862-31.078c15.219-7.891 33.294-11.858 54.83-11.858v-2c-21.783 0-40.189 4.013-55.75 12.082l.92 1.776zm54.83-11.858c25.53 0 45.838 5.108 60.443 14.657l1.094-1.674c-15.035-9.83-35.767-14.983-61.537-14.983v2zm60.421 14.642c14.624 10.125 24.189 23.616 29.827 41.095l1.904-.614c-5.762-17.86-15.577-31.73-30.593-42.125l-1.138 1.644zm30.779 41.788h71.25v-2h-71.25v2zm72.226-1.217c-8.028-36.126-25.819-64.833-53.943-86.643l-1.226 1.58c27.737 21.51 45.285 49.803 53.217 85.497l1.952-.434zM303.768 32.91C275.62 11.08 238.907.21 194.285.21v2c44.298 0 80.545 10.789 108.257 32.28l1.226-1.58zM194.285.21c-31.471 0-59.537 5.722-83.614 16.04l.788 1.84c23.803-10.202 51.598-15.88 82.826-15.88v-2zm-83.632 16.05C86.596 27.142 65.95 42.046 49.883 60.983l1.525 1.294c15.852-18.683 36.246-33.419 60.069-44.196l-.824-1.822zm-60.76 44.71C33.27 79.888 20.662 102.242 12.64 128.023l1.91.594c7.94-25.519 20.411-47.625 36.846-66.327l-1.502-1.32zm-37.247 67.034C4.056 153.773.055 181.812.055 212.11h2c0-30.122 3.978-57.943 12.489-83.474l-1.898-.632zM.055 212.11c0 30.867 4.001 58.906 12.591 84.676l1.898-.632c-8.51-25.53-12.489-53.351-12.489-84.044h-2zm12.585 84.657c8.02 25.78 20.627 48.129 36.672 67.04l1.526-1.294c-15.874-18.709-28.349-40.82-36.288-66.34l-1.91.594zm36.672 67.04c16.068 18.937 36.718 33.846 60.789 44.162l.788-1.838c-23.809-10.204-44.199-24.935-60.051-43.618l-1.526 1.294zm60.771 44.154c24.098 10.902 51.604 16.049 83.632 16.049v-2c-31.812 0-59.025-5.112-82.808-15.871l-.824 1.822zm83.632 16.049c31.456 0 58.396-5.147 80.789-15.482l-.838-1.816c-22.067 10.185-48.707 15.298-79.951 15.298v2zm80.789-15.482c22.362-10.321 40.729-24.665 54.512-41.893l-1.562-1.25c-13.577 16.972-31.69 31.128-53.788 41.327l.838 1.816zm54.512-41.893c13.761-17.201 24.079-36.694 30.955-59.041l-1.912-.588c-6.804 22.113-17.006 41.381-30.605 58.379l1.562 1.25zm30.96-59.057c6.295-21.748 9.729-44.641 9.729-68.678h-2c0 23.843-3.406 46.55-9.651 68.122l1.922.556zm9.729-68.678v-44.46h-2v44.46h2z" fill="#fff"/></svg>