<svg width="399" height="410" fill="none" xmlns="http://www.w3.org/2000/svg"><path d="M1.163 1.62V408.6h64.98V79.14h11.4l87.78 182.4h67.26l88.35-182.4h11.4V408.6h64.98V1.62h-106.59l-85.5 181.26h-11.4L107.183 1.62H1.163z" fill="#1B1B1B"/><path d="M1.163 1.62v-1h-1v1h1zm0 406.98h-1v1h1v-1zm64.98 0v1h1v-1h-1zm0-329.46v-1h-1v1h1zm11.4 0l.901-.434-.272-.566h-.629v1zm87.78 182.4l-.901.434.273.566h.628v-1zm67.26 0v1h.627l.273-.564-.9-.436zm88.35-182.4v-1h-.627l-.273.564.9.436zm11.4 0h1v-1h-1v1zm0 329.46h-1v1h1v-1zm64.98 0v1h1v-1h-1zm0-406.98h1v-1h-1v1zm-106.59 0v-1h-.634l-.27.573.904.427zm-85.5 181.26v1h.634l.271-.573-.905-.427zm-11.4 0l-.902.431.272.569h.63v-1zM107.183 1.62l.902-.431-.271-.569h-.631v1zm-107.02 0V408.6h2V1.62h-2zm1 407.98h64.98v-2H1.163v2zm65.98-1V79.14h-2V408.6h2zm-1-328.46h11.4v-2h-11.4v2zm10.5-.566l87.779 182.4 1.802-.868-87.78-182.4-1.802.868zm88.68 182.966h67.26v-2h-67.26v2zm68.16-.564l88.35-182.4-1.8-.872-88.35 182.4 1.8.872zm87.45-181.836h11.4v-2h-11.4v2zm10.4-1V408.6h2V79.14h-2zm1 330.46h64.98v-2h-64.98v2zm65.98-1V1.62h-2V408.6h2zm-1-407.98h-106.59v2h106.59v-2zm-107.494.573l-85.5 181.26 1.809.854 85.5-181.26-1.809-.854zM205.223 181.88h-11.4v2h11.4v-2zm-10.498.569l-86.64-181.26-1.804.862 86.64 181.26 1.804-.862zM107.183.62H1.163v2h106.02v-2z" fill="#fff"/></svg>