<svg width="303" height="410" viewBox="0 0 303 410" fill="none" xmlns="http://www.w3.org/2000/svg">
<path d="M301.544 346.47H70.1238V229.62H247.394V168.63H70.1238V63.7501H294.134V1.62007H1.72379V408.6H301.544V346.47Z" fill="#1B1B1B"/>
<path d="M301.544 346.47H302.544V345.47H301.544V346.47ZM70.1238 346.47H69.1238V347.47H70.1238V346.47ZM70.1238 229.62V228.62H69.1238V229.62H70.1238ZM247.394 229.62V230.62H248.394V229.62H247.394ZM247.394 168.63H248.394V167.63H247.394V168.63ZM70.1238 168.63H69.1238V169.63H70.1238V168.63ZM70.1238 63.7501V62.7501H69.1238V63.7501H70.1238ZM294.134 63.7501V64.7501H295.134V63.7501H294.134ZM294.134 1.62007H295.134V0.620071H294.134V1.62007ZM1.72379 1.62007V0.620071H0.723792V1.62007H1.72379ZM1.72379 408.6H0.723792V409.6H1.72379V408.6ZM301.544 408.6V409.6H302.544V408.6H301.544ZM301.544 345.47H70.1238V347.47H301.544V345.47ZM71.1238 346.47V229.62H69.1238V346.47H71.1238ZM70.1238 230.62H247.394V228.62H70.1238V230.62ZM248.394 229.62V168.63H246.394V229.62H248.394ZM247.394 167.63H70.1238V169.63H247.394V167.63ZM71.1238 168.63V63.7501H69.1238V168.63H71.1238ZM70.1238 64.7501H294.134V62.7501H70.1238V64.7501ZM295.134 63.7501V1.62007H293.134V63.7501H295.134ZM294.134 0.620071H1.72379V2.62007H294.134V0.620071ZM0.723792 1.62007V408.6H2.72379V1.62007H0.723792ZM1.72379 409.6H301.544V407.6H1.72379V409.6ZM302.544 408.6V346.47H300.544V408.6H302.544Z" fill="white"/>
</svg>
