<svg width="386" height="410" viewBox="0 0 386 410" fill="none" xmlns="http://www.w3.org/2000/svg">
<path d="M274.773 291.75L312.393 408.6H383.643L247.983 1.62007H137.403L2.31273 408.6H71.8527L108.903 291.75H274.773ZM128.283 230.76L179.583 68.3101H202.953L254.823 230.76H128.283Z" fill="#1B1B1B"/>
<path d="M274.773 291.75L275.725 291.444L275.501 290.75H274.773V291.75ZM312.393 408.6L311.441 408.907L311.664 409.6H312.393V408.6ZM383.643 408.6V409.6H385.03L384.591 408.284L383.643 408.6ZM247.983 1.62007L248.931 1.30384L248.704 0.620071H247.983V1.62007ZM137.403 1.62007V0.620071H136.681L136.454 1.30504L137.403 1.62007ZM2.31273 408.6L1.36365 408.285L0.927152 409.6H2.31273V408.6ZM71.8527 408.6V409.6H72.5847L72.806 408.902L71.8527 408.6ZM108.903 291.75V290.75H108.171L107.95 291.448L108.903 291.75ZM128.283 230.76L127.329 230.459L126.918 231.76H128.283V230.76ZM179.583 68.3101V67.3101H178.85L178.629 68.009L179.583 68.3101ZM202.953 68.3101L203.905 68.0059L203.683 67.3101H202.953V68.3101ZM254.823 230.76V231.76H256.192L255.775 230.456L254.823 230.76ZM273.821 292.057L311.441 408.907L313.345 408.294L275.725 291.444L273.821 292.057ZM312.393 409.6H383.643V407.6H312.393V409.6ZM384.591 408.284L248.931 1.30384L247.034 1.9363L382.694 408.916L384.591 408.284ZM247.983 0.620071H137.403V2.62007H247.983V0.620071ZM136.454 1.30504L1.36365 408.285L3.26182 408.915L138.352 1.9351L136.454 1.30504ZM2.31273 409.6H71.8527V407.6H2.31273V409.6ZM72.806 408.902L109.856 292.052L107.95 291.448L70.8995 408.298L72.806 408.902ZM108.903 292.75H274.773V290.75H108.903V292.75ZM129.236 231.061L180.536 68.6112L178.629 68.009L127.329 230.459L129.236 231.061ZM179.583 69.3101H202.953V67.3101H179.583V69.3101ZM202 68.6143L253.87 231.064L255.775 230.456L203.905 68.0059L202 68.6143ZM254.823 229.76H128.283V231.76H254.823V229.76Z" fill="white"/>
</svg>
