<svg width="370" height="425" viewBox="0 0 370 425" fill="none" xmlns="http://www.w3.org/2000/svg">
<path d="M368.705 194.44H188.585V252.58H299.735C299.165 269.11 296.885 283.93 292.325 297.61C287.765 311.29 281.495 322.69 272.945 331.81C263.825 341.5 252.995 348.91 239.885 354.04C226.775 359.17 211.385 361.45 194.285 361.45C172.625 361.45 154.385 358.03 138.995 350.05C123.035 342.07 110.495 331.24 100.235 317.56C89.975 303.88 82.565 288.49 78.005 270.25C72.875 252.01 70.595 232.63 70.595 212.11C70.595 191.59 72.875 172.21 78.005 153.97C82.565 135.73 90.545 120.34 100.805 106.66C111.065 93.5501 123.605 83.2901 138.995 75.3101C154.385 67.3301 172.625 63.3401 194.285 63.3401C219.935 63.3401 240.455 68.4701 255.275 78.1601C270.095 88.4201 279.785 102.1 285.485 119.77H356.735C348.755 83.8601 331.085 55.3601 303.155 33.7001C275.225 12.0401 238.745 1.21006 194.285 1.21006C162.935 1.21006 135.005 6.91009 111.065 17.1701C87.125 28.0001 66.605 42.8201 50.645 61.6301C34.115 80.4401 21.575 102.67 13.595 128.32C5.04504 153.97 1.05504 181.9 1.05504 212.11C1.05504 242.89 5.04504 270.82 13.595 296.47C21.575 322.12 34.115 344.35 50.075 363.16C66.035 381.97 86.555 396.79 110.495 407.05C134.435 417.88 161.795 423.01 193.715 423.01C225.065 423.01 251.855 417.88 274.085 407.62C296.315 397.36 314.555 383.11 328.235 366.01C341.915 348.91 352.175 329.53 359.015 307.3C365.285 285.64 368.705 262.84 368.705 238.9V194.44Z" fill="#1B1B1B"/>
<path d="M368.705 194.44H369.705V193.44H368.705V194.44ZM188.585 194.44V193.44H187.585V194.44H188.585ZM188.585 252.58H187.585V253.58H188.585V252.58ZM299.735 252.58L300.734 252.615L300.77 251.58H299.735V252.58ZM292.325 297.61L291.376 297.294L291.376 297.294L292.325 297.61ZM272.945 331.81L273.673 332.495L273.675 332.494L272.945 331.81ZM239.885 354.04L240.249 354.971L240.249 354.971L239.885 354.04ZM138.995 350.05L139.455 349.162L139.449 349.159L139.442 349.156L138.995 350.05ZM78.005 270.25L78.9752 270.008L78.9716 269.993L78.9677 269.979L78.005 270.25ZM78.005 153.97L78.9677 154.241L78.9716 154.227L78.9752 154.213L78.005 153.97ZM100.805 106.66L100.018 106.044L100.011 106.052L100.005 106.06L100.805 106.66ZM138.995 75.3101L138.535 74.4223L138.535 74.4223L138.995 75.3101ZM255.275 78.1601L255.844 77.3379L255.833 77.3304L255.822 77.3231L255.275 78.1601ZM285.485 119.77L284.533 120.077L284.757 120.77H285.485V119.77ZM356.735 119.77V120.77H357.982L357.711 119.553L356.735 119.77ZM303.155 33.7001L302.542 34.4903L302.542 34.4903L303.155 33.7001ZM111.065 17.1701L110.671 16.2509L110.662 16.2548L110.653 16.259L111.065 17.1701ZM50.645 61.6301L51.3962 62.2902L51.4019 62.2837L51.4076 62.277L50.645 61.6301ZM13.595 128.32L14.5437 128.636L14.5469 128.627L14.5499 128.617L13.595 128.32ZM13.595 296.47L14.5499 296.173L14.5469 296.163L14.5437 296.154L13.595 296.47ZM50.075 363.16L50.8376 362.513L50.8376 362.513L50.075 363.16ZM110.495 407.05L110.907 406.139L110.898 406.135L110.889 406.131L110.495 407.05ZM274.085 407.62L273.666 406.712L273.666 406.712L274.085 407.62ZM359.015 307.3L359.971 307.594L359.973 307.586L359.976 307.578L359.015 307.3ZM368.705 193.44H188.585V195.44H368.705V193.44ZM187.585 194.44V252.58H189.585V194.44H187.585ZM188.585 253.58H299.735V251.58H188.585V253.58ZM298.736 252.546C298.168 269.005 295.899 283.726 291.376 297.294L293.274 297.926C297.871 284.134 300.162 269.215 300.734 252.615L298.736 252.546ZM291.376 297.294C286.851 310.871 280.645 322.135 272.216 331.126L273.675 332.494C282.345 323.245 288.68 311.709 293.274 297.926L291.376 297.294ZM272.217 331.125C263.199 340.706 252.493 348.033 239.521 353.109L240.249 354.971C253.497 349.788 264.451 342.294 273.673 332.495L272.217 331.125ZM239.521 353.109C226.561 358.18 211.303 360.45 194.285 360.45V362.45C211.467 362.45 226.99 360.16 240.249 354.971L239.521 353.109ZM194.285 360.45C172.725 360.45 154.658 357.045 139.455 349.162L138.535 350.938C154.112 359.015 172.525 362.45 194.285 362.45V360.45ZM139.442 349.156C123.628 341.249 111.207 330.522 101.035 316.96L99.435 318.16C109.783 331.958 122.442 342.892 138.548 350.945L139.442 349.156ZM101.035 316.96C90.8572 303.39 83.5037 288.122 78.9752 270.008L77.0349 270.493C81.6263 288.858 89.0929 304.371 99.435 318.16L101.035 316.96ZM78.9677 269.979C73.8669 251.843 71.595 232.556 71.595 212.11H69.595C69.595 232.704 71.8832 252.177 77.0424 270.521L78.9677 269.979ZM71.595 212.11C71.595 191.664 73.8669 172.377 78.9677 154.241L77.0424 153.699C71.8832 172.043 69.595 191.516 69.595 212.11H71.595ZM78.9752 154.213C83.499 136.117 91.4148 120.847 101.605 107.26L100.005 106.06C89.6753 119.833 81.6311 135.343 77.0349 153.728L78.9752 154.213ZM101.593 107.276C111.76 94.2852 124.186 84.1154 139.455 76.1979L138.535 74.4223C123.024 82.4648 110.371 92.815 100.018 106.044L101.593 107.276ZM139.455 76.1979C154.674 68.3068 172.749 64.3401 194.285 64.3401V62.3401C172.502 62.3401 154.096 66.3534 138.535 74.4223L139.455 76.1979ZM194.285 64.3401C219.815 64.3401 240.123 69.448 254.728 78.9971L255.822 77.3231C240.787 67.4922 220.055 62.3401 194.285 62.3401V64.3401ZM254.706 78.9823C269.33 89.1066 278.895 102.598 284.533 120.077L286.437 119.463C280.675 101.603 270.86 87.7336 255.844 77.3379L254.706 78.9823ZM285.485 120.77H356.735V118.77H285.485V120.77ZM357.711 119.553C349.683 83.4275 331.892 54.7201 303.768 32.9099L302.542 34.4903C330.279 56.0001 347.827 84.2927 355.759 119.987L357.711 119.553ZM303.768 32.9099C275.62 11.0813 238.907 0.210065 194.285 0.210065V2.21006C238.583 2.21006 274.83 12.9989 302.542 34.4903L303.768 32.9099ZM194.285 0.210065C162.814 0.210065 134.748 5.93238 110.671 16.2509L111.459 18.0892C135.262 7.88781 163.057 2.21006 194.285 2.21006V0.210065ZM110.653 16.259C86.5958 27.142 65.9502 42.0462 49.8825 60.9831L51.4076 62.277C67.2599 43.5939 87.6543 28.8582 111.477 18.0812L110.653 16.259ZM49.8939 60.97C33.269 79.888 20.6608 102.242 12.6402 128.023L14.5499 128.617C22.4893 103.098 34.9611 80.9922 51.3962 62.2902L49.8939 60.97ZM12.6464 128.004C4.05665 153.773 0.0550397 181.812 0.0550397 212.11H2.05504C2.05504 181.988 6.03343 154.167 14.5437 128.636L12.6464 128.004ZM0.0550397 212.11C0.0550397 242.977 4.05637 271.016 12.6464 296.786L14.5437 296.154C6.03371 270.624 2.05504 242.803 2.05504 212.11H0.0550397ZM12.6402 296.767C20.6606 322.547 33.2666 344.896 49.3125 363.807L50.8376 362.513C34.9635 343.804 22.4895 321.693 14.5499 296.173L12.6402 296.767ZM49.3125 363.807C65.3801 382.744 86.0297 397.653 110.101 407.969L110.889 406.131C87.0803 395.927 66.69 381.196 50.8376 362.513L49.3125 363.807ZM110.083 407.961C134.181 418.863 161.687 424.01 193.715 424.01V422.01C161.903 422.01 134.69 416.898 110.907 406.139L110.083 407.961ZM193.715 424.01C225.171 424.01 252.111 418.863 274.504 408.528L273.666 406.712C251.599 416.897 224.959 422.01 193.715 422.01V424.01ZM274.504 408.528C296.866 398.207 315.233 383.863 329.016 366.635L327.454 365.385C313.877 382.357 295.764 396.513 273.666 406.712L274.504 408.528ZM329.016 366.635C342.777 349.434 353.095 329.941 359.971 307.594L358.059 307.006C351.255 329.119 341.053 348.387 327.454 365.385L329.016 366.635ZM359.976 307.578C366.271 285.83 369.705 262.937 369.705 238.9H367.705C367.705 262.743 364.299 285.45 358.054 307.022L359.976 307.578ZM369.705 238.9V194.44H367.705V238.9H369.705Z" fill="white"/>
</svg>
